<?xml version="1.0" standalone="no"?>
<!DOCTYPE svg PUBLIC "-//W3C//DTD SVG 20010904//EN"
 "http://www.w3.org/TR/2001/REC-SVG-20010904/DTD/svg10.dtd">
<svg version="1.0" xmlns="http://www.w3.org/2000/svg"
 width="512.000000pt" height="512.000000pt" viewBox="0 0 512.000000 512.000000"
 preserveAspectRatio="xMidYMid meet">
<metadata>
Created by potrace 1.16, written by Peter Selinger 2001-2019
</metadata>
<g transform="translate(0.000000,512.000000) scale(0.100000,-0.100000)"
fill="#000000" stroke="none">
<path d="M3520 4820 l0 -300 -540 0 -540 0 0 -195 0 -195 905 0 905 0 0 195 0
195 -210 0 -210 0 0 150 0 150 545 0 545 0 0 150 0 150 -700 0 -700 0 0 -300z"/>
<path d="M1920 3640 l0 -200 1430 0 1430 0 0 200 0 200 -1430 0 -1430 0 0
-200z"/>
<path d="M2220 3123 c0 -16 7 -91 15 -168 8 -77 15 -147 15 -155 0 -11 19 -19
64 -28 159 -30 339 -121 473 -238 130 -114 254 -319 304 -499 18 -68 22 -114
26 -315 l5 -236 57 -29 c73 -38 168 -134 208 -211 82 -156 82 -343 0 -498 -41
-77 -135 -172 -209 -211 l-58 -30 0 -118 c0 -137 -19 -235 -61 -319 -16 -32
-29 -60 -29 -63 0 -3 259 -5 575 -5 l575 0 4 23 c3 12 69 697 146 1522 78 825
144 1524 147 1553 l6 52 -1132 0 -1131 0 0 -27z"/>
<path d="M1073 2485 c-141 -38 -250 -102 -349 -206 -75 -80 -124 -161 -160
-264 -27 -76 -28 -91 -32 -287 l-4 -208 1152 0 1152 0 -4 208 c-4 182 -8 215
-27 272 -43 124 -91 200 -181 291 -71 71 -101 93 -180 132 -160 79 -143 77
-765 76 -437 0 -561 -3 -602 -14z"/>
<path d="M319 1202 c-42 -21 -61 -40 -86 -82 -29 -47 -33 -63 -33 -121 0 -91
36 -161 105 -204 l48 -30 475 -3 c271 -2 472 1 470 6 -1 5 -84 111 -183 235
l-180 226 -281 0 -282 1 -53 -28z"/>
<path d="M1312 1220 c7 -20 362 -460 369 -458 9 3 369 455 369 463 0 3 -167 5
-371 5 -231 0 -369 -4 -367 -10z"/>
<path d="M2243 1001 c-101 -126 -183 -232 -183 -235 0 -12 901 -7 941 6 52 15
117 73 140 122 25 54 24 148 0 201 -10 22 -34 54 -52 72 -64 60 -80 63 -386
63 l-278 0 -182 -229z"/>
<path d="M532 353 c3 -98 8 -126 27 -166 30 -61 97 -128 158 -159 l48 -23 915
0 915 0 51 27 c67 35 138 115 163 184 16 42 21 78 21 154 l0 100 -1151 0
-1151 0 4 -117z"/>
</g>
</svg>
