<?xml version="1.0" standalone="no"?>
<!DOCTYPE svg PUBLIC "-//W3C//DTD SVG 20010904//EN"
 "http://www.w3.org/TR/2001/REC-SVG-20010904/DTD/svg10.dtd">
<svg version="1.0" xmlns="http://www.w3.org/2000/svg"
 width="512.000000pt" height="512.000000pt" viewBox="0 0 512.000000 512.000000"
 preserveAspectRatio="xMidYMid meet">
<metadata>
Created by potrace 1.16, written by Peter Selinger 2001-2019
</metadata>
<g transform="translate(0.000000,512.000000) scale(0.100000,-0.100000)"
 stroke="none">
<path d="M2320 4793 c-19 -2 -96 -15 -170 -28 -956 -172 -1692 -953 -1816
-1927 -20 -162 -15 -489 11 -638 126 -739 586 -1350 1254 -1668 205 -97 470
-174 701 -202 126 -15 412 -12 547 5 394 52 753 199 1072 438 123 92 336 305
428 428 295 394 464 888 451 1326 -3 107 -6 123 -27 155 -36 53 -84 81 -146
86 -78 6 -116 -4 -163 -43 -55 -48 -68 -92 -81 -275 -19 -272 -72 -467 -191
-705 -39 -77 -101 -183 -138 -235 -81 -115 -258 -300 -367 -385 -420 -329
-952 -456 -1477 -355 -1039 200 -1694 1264 -1407 2284 87 309 246 577 478 806
703 695 1807 707 2535 28 l100 -93 -200 -5 c-189 -5 -201 -6 -244 -30 -116
-65 -142 -222 -53 -320 63 -71 65 -71 550 -68 l431 3 44 30 c81 57 84 68 113
509 31 488 32 529 2 581 -12 21 -42 53 -65 70 -38 26 -52 30 -110 30 -83 0
-135 -25 -176 -83 -26 -37 -31 -54 -38 -149 -5 -60 -12 -132 -14 -161 l-6 -54
-61 59 c-153 146 -338 271 -549 373 -331 159 -615 222 -991 218 -106 0 -208
-3 -227 -5z"/>
<path d="M2496 3778 c-51 -14 -121 -84 -135 -134 -15 -52 -15 -1094 -1 -1146
6 -21 22 -50 35 -66 36 -43 875 -667 914 -681 85 -28 190 7 238 80 25 37 28
52 28 119 0 65 -4 82 -25 112 -15 22 -173 148 -402 320 l-378 283 0 470 c0
303 -4 484 -11 509 -15 55 -84 120 -141 134 -54 14 -69 14 -122 0z"/>
</g>
</svg>
