<?xml version="1.0" standalone="no"?>
<!DOCTYPE svg PUBLIC "-//W3C//DTD SVG 20010904//EN"
 "http://www.w3.org/TR/2001/REC-SVG-20010904/DTD/svg10.dtd">
<svg version="1.0" xmlns="http://www.w3.org/2000/svg"
 width="512.000000pt" height="512.000000pt" viewBox="0 0 512.000000 512.000000"
 preserveAspectRatio="xMidYMid meet">
<metadata>
Created by potrace 1.16, written by Peter Selinger 2001-2019
</metadata>
<g transform="translate(0.000000,512.000000) scale(0.100000,-0.100000)"
fill="#000000" stroke="none">
<path d="M1695 5101 c-103 -29 -184 -79 -271 -166 -136 -136 -191 -277 -181
-465 8 -163 56 -283 158 -394 57 -63 120 -104 324 -213 482 -258 867 -534
1204 -866 365 -360 652 -750 926 -1257 128 -237 137 -252 205 -321 114 -115
236 -167 410 -176 125 -7 196 8 310 64 146 71 283 240 324 399 20 79 21 232 1
309 -45 177 -358 707 -638 1080 -474 632 -1061 1184 -1712 1610 -289 190 -625
372 -740 400 -81 20 -243 18 -320 -4z"/>
<path d="M1146 3373 c-80 -225 -146 -411 -146 -415 0 -4 28 -22 62 -40 83 -44
208 -164 262 -251 187 -304 137 -674 -123 -920 -174 -162 -411 -232 -641 -186
-33 6 -62 10 -64 8 -7 -9 -177 -491 -174 -494 2 -2 32 -10 67 -19 81 -21 210
-81 291 -136 173 -118 326 -334 375 -532 10 -38 20 -68 24 -68 3 0 148 52 321
114 295 107 315 116 313 138 -1 12 -9 67 -19 122 -15 85 -16 111 -6 192 42
332 281 592 604 658 331 68 671 -104 824 -416 16 -32 32 -58 37 -58 11 0 619
218 625 224 2 3 -7 20 -21 38 -14 18 -69 114 -122 213 -282 522 -539 879 -875
1215 -336 336 -693 593 -1215 875 -99 53 -194 108 -212 121 -17 13 -34 24 -36
24 -2 0 -70 -183 -151 -407z m588 -252 c90 -60 88 -190 -5 -245 -93 -55 -209
13 -209 124 0 80 60 140 140 140 27 0 56 -8 74 -19z m270 -910 c89 -59 89
-183 0 -242 -35 -23 -104 -25 -145 -4 -91 48 -92 187 -3 246 38 25 110 25 148
0z m930 -170 c43 -29 66 -70 66 -121 0 -107 -114 -175 -211 -125 -89 47 -93
193 -6 245 42 26 113 26 151 1z m-1690 -770 c43 -29 66 -70 66 -121 0 -80 -60
-140 -140 -140 -80 0 -140 60 -140 140 0 80 60 140 140 140 27 0 56 -8 74 -19z"/>
<path d="M747 2268 c-90 -253 -144 -415 -138 -421 5 -5 56 -8 113 -5 94 3 111
7 174 38 132 65 222 187 246 334 27 162 -50 340 -185 431 -29 19 -54 35 -57
35 -3 0 -71 -186 -153 -412z"/>
<path d="M2325 1256 c-231 -58 -386 -290 -347 -522 6 -37 15 -70 19 -74 7 -7
858 293 873 307 11 10 -59 121 -106 168 -117 114 -282 160 -439 121z"/>
<path d="M107 491 c-81 -226 -107 -310 -107 -347 0 -87 58 -144 145 -144 37 0
119 25 347 107 341 123 316 102 277 229 -34 112 -77 182 -164 269 -107 107
-258 185 -359 185 l-31 0 -108 -299z"/>
</g>
</svg>
