<?xml version="1.0" standalone="no"?>
<!DOCTYPE svg PUBLIC "-//W3C//DTD SVG 20010904//EN"
 "http://www.w3.org/TR/2001/REC-SVG-20010904/DTD/svg10.dtd">
<svg version="1.0" xmlns="http://www.w3.org/2000/svg"
 width="512.000000pt" height="512.000000pt" viewBox="0 0 512.000000 512.000000"
 preserveAspectRatio="xMidYMid meet">
<metadata>
Created by potrace 1.16, written by Peter Selinger 2001-2019
</metadata>
<g transform="translate(0.000000,512.000000) scale(0.100000,-0.100000)"
fill="#000000" stroke="none">
<path d="M2753 4006 c-28 -24 -28 -26 -29 -138 0 -92 -4 -121 -20 -158 -28
-60 -68 -107 -115 -130 -45 -24 -59 -46 -59 -94 0 -41 25 -72 65 -82 70 -17
211 91 261 200 38 83 57 188 51 281 -7 98 -12 112 -48 130 -40 21 -74 18 -106
-9z"/>
<path d="M2438 3964 c-27 -14 -38 -40 -53 -128 -4 -27 -21 -54 -56 -91 -45
-48 -54 -53 -128 -68 -128 -28 -231 -108 -290 -224 -35 -70 -26 -124 26 -151
55 -30 96 -8 142 73 39 68 95 110 169 126 104 21 150 40 194 79 58 50 105 141
123 234 17 89 8 129 -36 151 -35 19 -56 18 -91 -1z"/>
<path d="M2520 2997 c-31 -13 -77 -38 -104 -56 -48 -33 -49 -33 -82 -17 -114
54 -223 15 -319 -115 -25 -34 -45 -65 -45 -70 0 -5 54 -9 119 -9 533 0 1023
-306 1271 -793 l58 -115 30 18 c50 31 68 89 52 170 -8 42 -6 48 25 85 59 73
75 107 75 162 0 44 -4 56 -31 83 -35 35 -102 71 -168 91 l-43 13 6 53 c8 69
-9 176 -37 232 -51 103 -163 155 -337 156 l-106 1 -43 46 c-23 26 -62 56 -85
68 -60 28 -162 27 -236 -3z"/>
<path d="M1862 2555 c-253 -46 -472 -164 -668 -359 -197 -198 -313 -406 -376
-676 -16 -69 -21 -135 -25 -347 l-6 -263 1362 0 1361 0 -37 48 c-81 105 -104
185 -123 422 -26 338 -150 603 -391 836 -191 184 -416 298 -671 339 -112 18
-326 18 -426 0z m-127 -596 c12 -12 19 -32 19 -55 0 -45 -31 -74 -79 -74 -64
0 -99 85 -52 127 40 37 75 38 112 2z m546 16 c39 -21 54 -59 38 -97 -21 -52
-85 -65 -126 -26 -47 44 -18 118 55 137 2 1 16 -6 33 -14z m-852 -400 c73 -37
43 -145 -39 -145 -39 0 -84 53 -75 89 8 32 23 51 50 61 28 12 33 12 64 -5z
m1104 -17 c61 -72 -47 -176 -110 -105 -29 32 -33 49 -17 85 22 54 89 65 127
20z m-518 -223 c16 -15 25 -36 25 -55 0 -39 -39 -80 -75 -80 -32 0 -85 50 -85
80 0 30 53 80 85 80 14 0 37 -11 50 -25z"/>
<path d="M3735 2384 c39 -94 38 -180 -5 -265 -12 -22 -20 -42 -18 -43 2 -1 24
-10 51 -20 69 -26 160 -90 212 -149 52 -59 116 -185 136 -267 23 -93 16 -232
-15 -323 -50 -148 -157 -279 -282 -344 -30 -15 -54 -31 -54 -35 0 -16 82 -30
161 -26 105 4 178 36 245 105 96 98 134 228 115 391 -36 305 -181 606 -424
876 -76 84 -137 134 -122 100z"/>
<path d="M3632 1904 c-6 -27 -13 -56 -16 -64 -4 -11 10 -23 49 -44 64 -33 113
-84 152 -158 25 -47 28 -64 28 -148 0 -82 -4 -103 -26 -150 -46 -97 -135 -169
-247 -199 l-42 -12 25 -49 c24 -47 27 -49 58 -43 194 37 354 205 375 395 18
158 -28 308 -126 405 -52 52 -131 98 -188 109 -31 6 -32 5 -42 -42z"/>
<path d="M3508 1691 c-42 -18 -43 -22 -23 -106 8 -33 20 -117 27 -187 13 -143
15 -146 86 -109 112 58 153 185 96 299 -27 54 -59 83 -116 106 -28 11 -38 11
-70 -3z"/>
</g>
</svg>
