<?xml version="1.0" standalone="no"?>
<!DOCTYPE svg PUBLIC "-//W3C//DTD SVG 20010904//EN"
 "http://www.w3.org/TR/2001/REC-SVG-20010904/DTD/svg10.dtd">
<svg version="1.0" xmlns="http://www.w3.org/2000/svg"
 width="512.000000pt" height="512.000000pt" viewBox="0 0 512.000000 512.000000"
 preserveAspectRatio="xMidYMid meet">
<metadata>
Created by potrace 1.16, written by Peter Selinger 2001-2019
</metadata>
<g transform="translate(0.000000,512.000000) scale(0.100000,-0.100000)"
fill="#000000" stroke="none">
<path d="M174 4151 c-79 -10 -118 -31 -150 -84 -18 -30 -19 -53 -19 -347 0
-197 5 -354 13 -420 124 -1009 520 -1657 1230 -2014 304 -153 719 -265 1128
-305 139 -14 534 -26 569 -17 27 7 1 34 -732 769 -621 622 -762 768 -767 795
-19 105 74 197 181 178 34 -7 116 -85 793 -762 415 -415 759 -754 764 -754 14
0 -1 519 -18 660 -87 700 -316 1232 -690 1603 -375 373 -927 604 -1626 682
-161 18 -576 27 -676 16z"/>
<path d="M4540 3204 c-14 -2 -65 -9 -115 -15 -416 -50 -792 -213 -1037 -448
l-90 -86 41 -138 c51 -174 96 -392 117 -567 9 -74 18 -141 20 -149 3 -9 84 64
222 201 229 228 256 247 327 234 65 -13 125 -85 125 -151 0 -14 -7 -40 -16
-58 -9 -18 -156 -172 -327 -344 l-310 -311 -8 -164 c-4 -90 -12 -178 -18 -197
l-10 -34 77 7 c334 30 716 169 951 346 408 308 631 854 631 1549 0 223 -10
261 -78 303 -35 22 -46 23 -257 24 -121 1 -231 0 -245 -2z"/>
</g>
</svg>
