<?xml version="1.0" standalone="no"?>
<!DOCTYPE svg PUBLIC "-//W3C//DTD SVG 20010904//EN"
 "http://www.w3.org/TR/2001/REC-SVG-20010904/DTD/svg10.dtd">
<svg version="1.0" xmlns="http://www.w3.org/2000/svg"
 width="512.000000pt" height="512.000000pt" viewBox="0 0 512.000000 512.000000"
 preserveAspectRatio="xMidYMid meet">
<metadata>
Created by potrace 1.16, written by Peter Selinger 2001-2019
</metadata>
<g transform="translate(0.000000,512.000000) scale(0.100000,-0.100000)"
 stroke="none">
<path d="M4360 4934 c-159 -24 -282 -59 -450 -126 -113 -44 -435 -203 -467
-230 -27 -22 -14 -59 46 -125 l60 -65 -147 -115 c-81 -64 -172 -138 -203 -164
l-56 -48 -96 84 c-59 53 -104 85 -118 85 -23 0 -219 -142 -381 -278 -110 -91
-114 -109 -35 -170 28 -22 75 -61 102 -86 l50 -46 -110 -105 c-60 -58 -147
-140 -192 -182 l-83 -75 -65 57 c-36 31 -81 77 -101 101 -62 75 -69 72 -272
-128 -208 -208 -236 -240 -228 -271 3 -12 29 -39 58 -60 29 -21 79 -61 111
-90 l57 -52 -174 -185 c-96 -102 -181 -185 -190 -185 -8 0 -58 40 -110 88 -71
65 -102 88 -118 85 -14 -2 -50 -37 -96 -93 -126 -155 -262 -339 -269 -364 -5
-22 6 -36 88 -112 73 -68 92 -91 84 -102 -10 -15 -291 -365 -305 -381 -5 -4
-41 17 -80 48 -40 31 -78 56 -85 56 -29 0 -58 -43 -139 -200 -87 -170 -169
-363 -205 -485 -183 -621 69 -931 654 -805 293 64 667 242 1080 515 1128 745
2319 2049 2770 3035 269 588 256 994 -38 1130 -89 42 -236 60 -347 44z m247
-119 c153 -46 226 -160 226 -355 -2 -503 -516 -1383 -1318 -2257 -1008 -1101
-2220 -1913 -2855 -1916 -251 0 -371 121 -371 373 0 197 74 437 233 755 39 77
71 141 73 143 1 2 40 -24 86 -57 302 -216 552 -298 671 -218 134 91 105 340
-69 598 -61 89 -189 237 -238 275 -21 16 -34 33 -31 41 6 15 163 222 214 283
l29 34 84 -73 c189 -165 444 -317 595 -356 72 -17 161 -20 201 -4 100 37 139
171 97 333 -21 83 -91 220 -161 318 -62 86 -195 228 -278 296 l-50 42 147 146
146 147 82 -74 c285 -259 611 -427 782 -404 172 24 215 223 100 468 -71 152
-208 331 -339 444 l-68 59 52 42 c29 24 103 81 165 128 l111 84 27 -22 c213
-176 301 -236 452 -308 198 -94 341 -107 417 -37 60 55 78 174 45 301 -32 122
-132 295 -250 430 -24 28 -40 53 -36 57 18 16 169 91 282 141 327 144 580 192
747 143z m-949 -577 c70 -107 122 -245 122 -320 0 -40 -25 -94 -48 -107 -65
-35 -244 24 -430 141 -34 22 -61 45 -60 50 4 11 359 297 369 298 4 0 25 -28
47 -62z m-855 -757 c103 -142 157 -272 157 -376 0 -53 -4 -69 -24 -92 -21 -24
-31 -28 -75 -27 -64 2 -134 25 -245 81 -98 49 -247 144 -243 155 4 14 352 337
363 338 6 0 36 -35 67 -79z m-822 -803 c111 -150 182 -331 165 -422 -17 -88
-79 -106 -214 -60 -118 39 -369 181 -360 204 5 14 333 360 341 360 4 0 34 -37
68 -82z m-771 -879 c117 -183 156 -358 93 -421 -51 -51 -240 3 -436 124 l-37
24 67 84 c182 232 235 291 249 280 7 -7 36 -48 64 -91z"/>
</g>
</svg>
