<?xml version="1.0" standalone="no"?>
<!DOCTYPE svg PUBLIC "-//W3C//DTD SVG 20010904//EN"
 "http://www.w3.org/TR/2001/REC-SVG-20010904/DTD/svg10.dtd">
<svg version="1.0" xmlns="http://www.w3.org/2000/svg"
 width="512.000000pt" height="512.000000pt" viewBox="0 0 512.000000 512.000000"
 preserveAspectRatio="xMidYMid meet">
<metadata>
Created by potrace 1.16, written by Peter Selinger 2001-2019
</metadata>
<g transform="translate(0.000000,512.000000) scale(0.100000,-0.100000)"
fill="#000000" stroke="none">
<path d="M2955 5073 c-261 -173 -463 -424 -613 -757 -169 -378 -255 -809 -270
-1354 l-7 -232 -64 37 c-220 130 -372 411 -388 721 -4 73 -10 112 -17 112 -17
0 -170 -104 -251 -170 -84 -69 -233 -222 -296 -305 -211 -275 -344 -589 -393
-926 -21 -139 -21 -418 -1 -558 124 -846 783 -1501 1637 -1627 171 -25 489
-15 655 20 380 81 702 255 973 526 271 271 445 593 526 973 22 101 27 158 31
333 9 364 -37 616 -167 920 -114 266 -234 444 -643 950 -115 142 -248 317
-295 389 -200 299 -306 591 -319 878 -4 76 -10 117 -17 117 -6 0 -43 -21 -81
-47z m494 -2378 c38 -205 53 -351 58 -600 5 -212 2 -285 -12 -395 -72 -572
-330 -920 -764 -1031 -95 -24 -242 -26 -337 -4 -202 46 -386 193 -478 379 -56
113 -71 183 -70 326 0 109 4 135 28 205 51 150 142 276 260 359 90 64 149 91
287 130 360 101 612 232 793 412 77 77 169 204 196 272 16 41 23 31 39 -53z"/>
</g>
</svg>
